<?xml version="1.0" encoding="UTF-8" standalone="no"?>
<svg
   xmlns:dc="http://purl.org/dc/elements/1.1/"
   xmlns:cc="http://creativecommons.org/ns#"
   xmlns:rdf="http://www.w3.org/1999/02/22-rdf-syntax-ns#"
   xmlns:svg="http://www.w3.org/2000/svg"
   xmlns="http://www.w3.org/2000/svg"
   xmlns:sodipodi="http://sodipodi.sourceforge.net/DTD/sodipodi-0.dtd"
   xmlns:inkscape="http://www.inkscape.org/namespaces/inkscape"
   width="210mm"
   height="210mm"
   viewBox="0 0 210 210"
   version="1.1"
   id="svg8"
   inkscape:version="1.0.1 (3bc2e813f5, 2020-09-07)"
   sodipodi:docname="fedgate.svg">
  <defs
     id="defs2">
    <rect
       x="25.004011"
       y="103.89916"
       width="159.38045"
       height="54.490583"
       id="rect950" />
    <rect
       x="25.004011"
       y="103.89916"
       width="159.38045"
       height="54.490582"
       id="rect950-7" />
    <rect
       x="25.004011"
       y="103.89916"
       width="159.38045"
       height="54.490582"
       id="rect967" />
  </defs>
  <sodipodi:namedview
     id="base"
     pagecolor="#ffffff"
     bordercolor="#666666"
     borderopacity="1.0"
     inkscape:pageopacity="0.0"
     inkscape:pageshadow="2"
     inkscape:zoom="1"
     inkscape:cx="676.32018"
     inkscape:cy="591.27413"
     inkscape:document-units="mm"
     inkscape:current-layer="layer1"
     inkscape:document-rotation="0"
     showgrid="false"
     inkscape:window-width="1360"
     inkscape:window-height="704"
     inkscape:window-x="0"
     inkscape:window-y="0"
     inkscape:window-maximized="1"
     objecttolerance="1" />
  <metadata
     id="metadata5">
    <rdf:RDF>
      <cc:Work
         rdf:about="">
        <dc:format>image/svg+xml</dc:format>
        <dc:type
           rdf:resource="http://purl.org/dc/dcmitype/StillImage" />
        <dc:title />
      </cc:Work>
    </rdf:RDF>
  </metadata>
  <g
     inkscape:label="Layer 1"
     inkscape:groupmode="layer"
     id="layer1">
    <text
       xml:space="preserve"
       style="font-style:normal;font-weight:normal;font-size:10.5833px;line-height:0;font-family:sans-serif;letter-spacing:0px;word-spacing:0px;fill:black;fill-opacity:1;stroke:none;stroke-width:0.264583"
       x="142.63582"
       y="119.13189"
       id="text956"><tspan
         sodipodi:role="line"
         id="tspan954"
         x="142.63582"
         y="119.13189"
         style="stroke-width:0.264583" /></text>
    <rect
       style="fill:white;fill-opacity:1;stroke:none;stroke-width:25.992;stroke-miterlimit:1"
       id="rect847"
       width="214.28076"
       height="214.1498"
       x="-1.9804116"
       y="-2.1552975"
       ry="0" />
    <path
       style="opacity:1;fill:none;fill-opacity:1;stroke:#363da5;stroke-width:10.9903;stroke-miterlimit:1;stroke-opacity:1"
       d="M 198.59867,104.54509 A 93.802766,97.948936 0 0 1 104.79589,202.49402 93.802766,97.948936 0 0 1 10.993129,104.54509 93.802766,97.948936 0 0 1 104.79589,6.5961501 93.802766,97.948936 0 0 1 198.59867,104.54509 Z"
       id="path835" />
    <path
       style="opacity:1;fill:white;fill-opacity:1;stroke:none;stroke-width:17.8894;stroke-miterlimit:1;stroke-opacity:1"
       d="M 4.2104264,99.12453 H 204.66652 V 208.84868 H 4.2104264 Z"
       id="rect852" />
    <text
       xml:space="preserve"
       id="text948"
       style="font-style:normal;font-weight:normal;font-size:10.5833px;line-height:0;font-family:sans-serif;letter-spacing:0px;word-spacing:0px;white-space:pre;shape-inside:url(#rect950);fill:black;fill-opacity:1;stroke:none;"
       transform="matrix(4.5922237,0,0,6.370615,-100.45636,-516.82351)"><tspan
         x="25.003906"
         y="106.74318"><tspan
           style="font-style:normal;font-variant:normal;font-weight:normal;font-stretch:normal;font-family:eufm10;-inkscape-font-specification:eufm10;fill:#363da5;fill-opacity:1">Fed</tspan></tspan></text>
    <g
       aria-label="Gate"
       transform="matrix(4.5922237,0,0,6.370615,-25.716535,-514.83369)"
       id="text948-7"
       style="font-style:normal;font-weight:normal;font-size:10.5833px;line-height:0;font-family:sans-serif;letter-spacing:0px;word-spacing:0px;white-space:pre;shape-inside:url(#rect950-7);fill:black;fill-opacity:1;stroke:none">
      <path
         d="m 29.444373,102.1535 c 0.282532,-0.20896 0.77196,-0.21588 1.176749,-0.21619 0.62356,0 1.061086,0.12747 1.312577,0.38241 0.172254,0.16536 0.31178,0.35312 0.418578,0.56327 0.110243,0.21015 0.165364,0.42719 0.165364,0.65112 0,0.40652 -0.08785,0.80098 -0.263549,1.18339 -0.09943,0.21446 -0.143762,0.34215 -0.255666,0.54813 -0.06628,0.122 -0.161718,0.20511 -0.353392,0.41493 -0.863655,0.98112 -1.458748,1.04353 -1.742213,1.1815 -0.306612,0.11025 -0.640785,0.16537 -1.002519,0.16537 l -5e-6,-3e-5 c -1.030081,0 -1.82245,-0.34623 -2.377108,-1.0387 -0.554659,-0.69591 -0.831988,-1.56923 -0.831988,-2.61998 0,-0.39963 0.03617,-0.76481 0.10852,-1.09554 0.07235,-0.33073 0.204982,-0.62184 0.397907,-0.87333 0.625652,-0.76785 1.14333,-0.85377 1.678499,-1.01285 l 0.194481,0.38482 m -0.001,-9.1e-4 c -0.344723,0.0908 -0.800131,0.14004 -1.164918,0.68057 -0.230821,0.35485 -0.346231,0.82682 -0.346231,1.41593 0,0.50298 0.07062,0.97323 0.211873,1.41076 0.144693,0.43753 0.373791,0.81476 0.687294,1.13171 l -1e-6,3e-5 c 0.179145,0.17915 0.377237,0.33762 0.594277,0.47542 0.220485,0.13436 0.453029,0.23944 0.69763,0.31523 0.244601,0.0724 0.490924,0.10852 0.738971,0.10852 0.4203,0 0.762274,-0.11047 1.086112,-0.31029 0.323838,-0.20326 0.575329,-0.47542 0.754473,-0.81649 0.179145,-0.34106 0.268717,-0.72002 0.268717,-1.13688 0,-0.25493 -0.04823,-0.47714 -0.144694,-0.66662 -0.09302,-0.18948 -0.225652,-0.34968 -0.397907,-0.48059 -0.168809,-0.13091 -0.360011,-0.22738 -0.573606,-0.28939 -0.213595,-0.0655 -0.440971,-0.0982 -0.682127,-0.0982"
         style="font-style:normal;font-variant:normal;font-weight:normal;font-stretch:normal;font-family:eufm10;-inkscape-font-specification:eufm10;fill:#005bc0;fill-opacity:1"
         id="path1664"
         sodipodi:nodetypes="ccccscscccccsscccccscccccscsscccc" />
      <path
         d="m 34.03175,106.05588 c -0.314759,-0.56443 -0.258246,-2.46719 0.191198,-3.17809 0.821434,-1.35413 1.554356,-1.09843 2.76468,-0.69763 l 0.69763,-0.35656 c 0.26378,0.66416 -0.119083,1.86558 -0.103322,2.61997 0.0069,0.16537 0.0155,0.34107 0.02584,0.5271 -0.02739,0.46556 0.07675,0.57757 0.392741,0.98702 1.574282,-0.81146 -0.409695,0.78876 -0.620928,0.97354 -0.09798,0.0965 -0.103034,0.10358 -0.165255,0.01 -0.199463,-0.303 -0.388232,-0.62579 -0.407529,-0.92625 -0.0069,-0.1068 -0.01034,-0.18431 -0.01034,-0.23254 -0.587215,0.39926 -1.112139,0.85001 -1.700463,1.24791 -0.0605,0.0613 -0.175494,0.0871 -0.21988,0.0206 -0.157098,-0.23531 -0.701174,-0.8114 -0.844372,-0.99458 z m 0.847488,-0.59428 c 0.07235,0.093 0.194647,0.23082 0.366901,0.41341 0.175699,0.18259 0.275607,0.27389 0.299723,0.27389 0.05167,0 0.09818,-0.0103 0.139526,-0.031 0.196369,-0.12057 0.368623,-0.22392 0.516762,-0.31005 0.148139,-0.0861 0.346231,-0.20498 0.594277,-0.35657 l -0.01033,-2.57348 c -0.21704,0 -0.423745,-0.0207 -0.620115,-0.062 -1.763836,-0.40545 -1.679618,2.02808 -1.286735,2.64582 z"
         style="font-style:normal;font-variant:normal;font-weight:normal;font-stretch:normal;font-family:eufm10;-inkscape-font-specification:eufm10;fill:#005bc0;fill-opacity:1"
         id="path1666"
         sodipodi:nodetypes="ccccccccccccscccscscccccc" />
      <path
         d="m 39.778151,106.08689 c -0.489183,-0.57925 0.420902,-2.91837 0.03101,-3.07991 -0.656237,0.003 -0.492066,0.002 -0.930173,0 -0.438107,-0.002 -0.677301,-0.36763 0.39274,-0.3824 h 0.563271 c 0,-0.14469 0.0034,-0.35829 0.01033,-0.64079 0.0069,-0.28249 0.01034,-0.49437 0.01034,-0.63562 -0.275923,-0.74817 2.237413,-1.819801 1.440027,-1.08189 -0.41651,0.3957 -0.618379,0.99749 -0.618379,2.3583 0.385535,-0.0403 0.765148,-0.0603 1.121375,0 0.62301,0.15541 -0.210595,0.37599 -0.315225,0.3824 -0.10463,0.006 -0.363833,-0.0226 -0.816485,0 -0.452652,0.0226 -0.258692,2.14448 0.02067,2.43395 0.189336,0.17499 0.358738,0.34415 0.573607,0.49093 0.09991,0.062 0.187757,0.093 0.263549,0.093 0.02756,0 0.04995,-0.003 0.06718,-0.0103 1.618545,-0.74586 -0.06128,0.45754 -0.744139,0.95084 0,0 -0.580515,-0.29926 -1.069698,-0.87851 z"
         style="font-style:normal;font-variant:normal;font-weight:normal;font-stretch:normal;font-family:eufm10;-inkscape-font-specification:eufm10;fill:#005bc0;fill-opacity:1"
         id="path1668"
         sodipodi:nodetypes="zczccscccczzccsccz" />
      <path
         d="m 42.933555,105.84313 c -0.04479,-0.36863 -0.06718,-0.75275 -0.06718,-1.15238 0,-0.56499 0.05197,-1.17217 0.151877,-1.82329 1.911757,-1.59689 1.681585,-0.8642 2.892294,0.0376 0.07104,0.0427 0.06105,0.0547 0.01223,0.1009 -1.055881,0.99779 -1.855951,1.6905 -2.265791,2.01227 0.107509,0.42337 0.636326,0.95206 1.124777,1.17596 0.566012,0.26127 3.860492,-1.09818 -0.498467,0.80549 -0.120189,0.0591 -0.149081,0.0746 -0.231834,-0.002 -0.515252,-0.47738 -0.88789,-0.86231 -1.117914,-1.15477 z m 0.768851,-1.32402 c -0.0036,0.0243 0.07723,-0.009 0.121135,-0.0289 0.314587,-0.14217 0.845722,-0.73689 1.203472,-0.96941 0.0868,-0.0737 0.08886,-0.09 -5.33e-4,-0.14715 -0.411533,-0.26527 -0.757104,-0.54253 -1.036713,-0.83177 -0.117133,0 -0.194647,0.22737 -0.232543,0.68212 -0.02007,0.44489 -0.05132,0.89941 -0.05482,1.29512 z"
         style="font-style:normal;font-variant:normal;font-weight:normal;font-stretch:normal;font-family:eufm10;-inkscape-font-specification:eufm10;fill:#005bc0;fill-opacity:1"
         id="path1670"
         sodipodi:nodetypes="csccccccccccscccccc" />
    </g>
  </g>
</svg>
